<?xml version="1.0" encoding="UTF-8"?>
<svg xmlns="http://www.w3.org/2000/svg" height="424" width="424" class="pyqrcode"><path transform="scale(8)" stroke="#000" class="pyqrline" d="M4 4.5h7m1 0h6m1 0h1m1 0h1m1 0h1m1 0h1m4 0h2m1 0h2m2 0h1m2 0h1m1 0h7m-45 1h1m5 0h1m1 0h5m1 0h5m1 0h2m3 0h1m5 0h1m1 0h1m1 0h1m2 0h1m5 0h1m-45 1h1m1 0h3m1 0h1m1 0h2m1 0h1m5 0h1m1 0h3m3 0h1m1 0h3m1 0h3m1 0h1m2 0h1m1 0h3m1 0h1m-45 1h1m1 0h3m1 0h1m3 0h2m3 0h2m1 0h1m2 0h3m1 0h2m4 0h1m3 0h2m1 0h1m1 0h3m1 0h1m-45 1h1m1 0h3m1 0h1m2 0h1m4 0h2m1 0h1m2 0h6m2 0h1m1 0h1m1 0h1m1 0h3m1 0h1m1 0h3m1 0h1m-45 1h1m5 0h1m1 0h5m2 0h1m2 0h3m3 0h6m8 0h1m5 0h1m-45 1h7m1 0h1m1 0h1m1 0h1m1 0h1m1 0h1m1 0h1m1 0h1m1 0h1m1 0h1m1 0h1m1 0h1m1 0h1m1 0h1m1 0h1m1 0h1m1 0h7m-37 1h1m1 0h8m2 0h1m3 0h2m1 0h1m2 0h1m1 0h1m1 0h3m-35 1h3m1 0h1m1 0h1m2 0h3m6 0h8m6 0h1m2 0h3m2 0h3m-45 1h1m1 0h3m2 0h1m5 0h1m2 0h1m3 0h1m1 0h1m3 0h6m1 0h1m1 0h2m2 0h4m1 0h1m-43 1h1m1 0h1m1 0h2m2 0h3m3 0h13m1 0h1m2 0h4m1 0h2m3 0h1m-44 1h1m1 0h4m2 0h1m1 0h1m2 0h2m1 0h1m3 0h3m3 0h2m1 0h4m1 0h3m2 0h4m1 0h1m-45 1h3m2 0h2m3 0h2m1 0h1m8 0h1m1 0h1m1 0h2m1 0h2m2 0h1m1 0h1m5 0h1m-41 1h1m2 0h2m1 0h4m2 0h1m1 0h1m1 0h2m2 0h1m1 0h2m1 0h3m1 0h2m3 0h3m6 0h1m-44 1h2m2 0h3m1 0h1m1 0h1m2 0h1m1 0h1m2 0h2m1 0h3m4 0h1m1 0h1m1 0h3m1 0h3m2 0h2m-43 1h2m8 0h3m3 0h1m1 0h1m2 0h1m1 0h5m1 0h1m1 0h1m2 0h1m1 0h2m1 0h3m1 0h1m-45 1h4m1 0h3m2 0h2m4 0h1m1 0h1m2 0h2m1 0h2m2 0h2m1 0h1m1 0h1m3 0h2m2 0h1m-41 1h1m1 0h2m2 0h3m4 0h1m5 0h1m1 0h3m2 0h1m2 0h2m3 0h3m4 0h1m1 0h1m-45 1h2m1 0h2m1 0h3m4 0h2m1 0h1m1 0h1m1 0h1m1 0h1m3 0h3m1 0h1m1 0h4m2 0h1m4 0h1m-44 1h1m4 0h1m4 0h4m1 0h1m2 0h1m4 0h2m1 0h1m2 0h1m1 0h2m1 0h2m3 0h2m1 0h2m-44 1h1m3 0h5m2 0h6m2 0h6m3 0h1m2 0h1m4 0h5m2 0h1m-44 1h1m3 0h1m3 0h3m2 0h1m5 0h2m3 0h4m1 0h1m1 0h1m3 0h2m3 0h3m1 0h1m-44 1h1m2 0h1m1 0h1m1 0h3m1 0h1m2 0h1m2 0h1m1 0h1m1 0h1m1 0h4m2 0h1m1 0h3m1 0h1m1 0h1m1 0h4m-44 1h1m1 0h3m3 0h2m3 0h2m3 0h3m3 0h1m1 0h2m1 0h5m2 0h1m3 0h5m-41 1h5m1 0h3m2 0h1m2 0h7m3 0h4m2 0h1m1 0h6m1 0h2m-44 1h1m1 0h1m3 0h1m6 0h5m1 0h3m1 0h2m2 0h1m1 0h2m3 0h2m1 0h1m2 0h1m-42 1h1m2 0h1m1 0h3m1 0h1m1 0h1m2 0h3m1 0h1m2 0h2m1 0h2m1 0h1m6 0h4m2 0h2m1 0h1m-44 1h1m1 0h1m1 0h1m3 0h1m1 0h3m2 0h2m1 0h2m2 0h2m1 0h2m1 0h1m1 0h1m1 0h1m1 0h1m3 0h2m1 0h4m-44 1h2m2 0h2m2 0h1m4 0h3m1 0h2m4 0h3m1 0h2m1 0h1m2 0h1m2 0h2m1 0h1m-41 1h1m4 0h1m3 0h2m1 0h1m2 0h1m1 0h2m1 0h1m2 0h1m4 0h1m3 0h1m2 0h2m1 0h1m2 0h4m-44 1h2m1 0h1m1 0h3m1 0h2m1 0h2m1 0h5m1 0h6m2 0h1m2 0h2m2 0h1m1 0h1m2 0h2m-44 1h2m1 0h1m1 0h1m2 0h2m3 0h1m2 0h1m1 0h1m1 0h2m1 0h1m1 0h3m4 0h1m1 0h2m2 0h1m2 0h2m1 0h1m-45 1h2m2 0h1m1 0h2m1 0h2m1 0h1m3 0h1m1 0h1m2 0h4m2 0h4m3 0h1m2 0h1m1 0h2m2 0h1m-42 1h1m2 0h1m1 0h1m2 0h4m2 0h3m2 0h1m1 0h2m1 0h1m3 0h2m3 0h3m3 0h4m-41 1h1m1 0h1m2 0h2m1 0h2m2 0h2m2 0h1m1 0h1m2 0h1m1 0h2m1 0h6m6 0h2m-43 1h4m5 0h1m4 0h3m1 0h2m1 0h1m1 0h1m3 0h3m1 0h1m1 0h1m2 0h3m1 0h4m-45 1h1m2 0h2m1 0h1m1 0h2m1 0h1m2 0h1m2 0h12m2 0h1m2 0h1m1 0h6m1 0h2m-37 1h1m1 0h1m1 0h1m2 0h1m2 0h1m1 0h1m3 0h4m3 0h3m2 0h1m3 0h2m1 0h2m-45 1h7m4 0h4m2 0h2m1 0h1m1 0h1m1 0h2m2 0h1m2 0h1m2 0h3m1 0h1m1 0h1m2 0h1m-44 1h1m5 0h1m2 0h2m2 0h4m1 0h1m1 0h1m3 0h1m1 0h2m4 0h2m1 0h2m3 0h3m-43 1h1m1 0h3m1 0h1m1 0h1m3 0h1m5 0h11m2 0h1m3 0h6m3 0h1m-45 1h1m1 0h3m1 0h1m1 0h1m3 0h1m1 0h2m1 0h1m1 0h1m1 0h1m1 0h2m1 0h2m1 0h4m6 0h6m-45 1h1m1 0h3m1 0h1m1 0h1m1 0h2m1 0h1m2 0h1m3 0h1m1 0h1m3 0h3m1 0h2m2 0h1m1 0h3m3 0h1m-43 1h1m5 0h1m2 0h1m3 0h1m2 0h2m2 0h3m1 0h3m1 0h2m2 0h1m2 0h2m2 0h1m1 0h2m-43 1h7m3 0h7m2 0h1m2 0h1m3 0h1m3 0h2m1 0h1m1 0h1m1 0h5m1 0h1"/></svg>
